<?xml version="1.0" encoding="UTF-8"?>
<!-- Created with Inkscape (http://www.inkscape.org/) -->
<svg width="256" height="256" version="1.1" viewBox="0 0 67.733 67.733" xmlns="http://www.w3.org/2000/svg">
 <path d="m5.2917 0h57.15a5.2917 5.2917 45 0 1 5.2917 5.2917v57.15a5.2917 5.2917 135 0 1-5.2917 5.2917h-57.15a5.2917 5.2917 45 0 1-5.2917-5.2917v-57.15a5.2917 5.2917 135 0 1 5.2917-5.2917z" fill="#053161" stroke-width=".2657"/>
 <g fill="#bed9da" stroke-width=".26458" aria-label="[y]">
  <path d="m13.951 50.102h8.0097v-2.6518h-4.979v-29.333h4.979v-2.6518h-8.0097z"/>
  <path d="m28.238 52.267c2.8819 0 4.9113-1.5289 6.1155-4.7625l8.8214-23.812h-3.4636l-5.7366 16.561h-0.21648l-5.7366-16.561h-3.4636l7.6849 20.89-0.59531 1.6236c-1.1636 3.166-2.5977 3.4636-4.9249 2.8683l-0.81179 2.8142c0.32472 0.16236 1.2447 0.37884 2.3271 0.37884z"/>
  <path d="m53.783 15.466h-8.0097v2.6518h4.979v29.333h-4.979v2.6518h8.0097z"/>
 </g>
</svg>
